# xmcd
# 
# Track frame offsets:
#     150
#     22799
#     45384
#     70867
#     93192
#     119933
#     140016
#     162160
# 
# Disc length: 2417
# 
# Revision: 1
# Processed by: cddbd v1.5.2PL0 Copyright (c) Steve Scherf et al.
# Submitted via: BonkEnc v1.0.8
# 
DISCID=65096f08
DTITLE=The Klaus Doldinger Quartet and Attila Zoller - Goes on
DYEAR=1967
DGENRE=Contemporary Jazz
TTITLE0=Shakin' The Blues
TTITLE1=Quartenwalzer
TTITLE2=That Bluesy Sound
TTITLE3=Tears
TTITLE4=Five For You
TTITLE5=Run, Baby, Run
TTITLE6=Watch It
TTITLE7=Just A Little Bit Of Soul
EXTD=
EXTT0=
EXTT1=
EXTT2=
EXTT3=
EXTT4=
EXTT5=
EXTT6=
EXTT7=
PLAYORDER=
